Coordinates
version=1
nRows=9
nColumns=24
inDegrees=yes

Units are S.I. units (second, meters, Newtons, ...)
Angles are in degrees.

endheader
time	pelvis_tilt	pelvis_list	pelvis_rotation	pelvis_tx	pelvis_ty	pelvis_tz	hip_flexion_r	hip_adduction_r	hip_rotation_r	knee_angle_r	ankle_angle_r	subtalar_angle_r	mtp_angle_r	hip_flexion_l	hip_adduction_l	hip_rotation_l	knee_angle_l	ankle_angle_l	subtalar_angle_l	mtp_angle_l	lumbar_extension	lumbar_bending	lumbar_rotation
      3.06500000	     -7.04882957	    -18.79383783	     13.44023809	     -2.50707623	     -0.05715186	      0.44712622	     31.22640245	     19.67050358	     -5.19861702	    -27.21066253	      1.79823731	     -0.27698704	      3.94933532	     24.17201917	    -18.69911609	     10.64852161	    -71.47846061	    -33.29493956	     20.35825975	     26.79497736	      9.01306903	     18.21213165	    -15.32189015
      3.07000000	     -6.98116384	    -18.69349775	     13.02941385	     -2.49922832	     -0.05580282	      0.44762803	     30.21673788	     20.07387902	     -4.44121265	    -26.74914222	      2.25317144	     -0.30289937	      3.55815751	     24.88394479	    -18.39366269	     10.71075534	    -72.11895281	    -32.32479707	     19.80680133	     27.60384251	      8.82949807	     18.16881655	    -14.70190320
      3.07500000	     -6.95644022	    -18.55036762	     12.53452879	     -2.49134909	     -0.05443797	      0.44825723	     29.21658799	     20.45212469	     -3.60886356	    -26.27804140	      2.53763713	     -0.47345607	      3.30784890	     25.58181237	    -18.08191699	     10.65141916	    -72.66820352	    -31.26141867	     19.23250366	     28.37074399	      8.65884125	     18.07829086	    -13.99348203
      3.08000000	     -6.93690762	    -18.36779272	     12.00651645	     -2.48338059	     -0.05300694	      0.44893851	     28.16112788	     20.80589637	     -2.62996407	    -25.76230744	      2.78891569	     -0.70230457	      3.06256837	     26.24084543	    -17.75407001	     10.53693496	    -73.11377507	    -30.17937479	     18.72102783	     29.09510982	      8.49059920	     17.93995697	    -13.22853748
      3.08500000	     -6.86780648	    -18.10352957	     11.48001129	     -2.47534328	     -0.05142076	      0.44967106	     26.99533742	     21.10703372	     -1.48928706	    -25.22408734	      2.94198253	     -1.14276055	      2.58559712	     26.77874972	    -17.37007744	     10.35969823	    -73.42898077	    -29.05790699	     18.19281390	     29.78427887	      8.26039167	     17.71436043	    -12.53335101
      3.09000000	     -6.85611308	    -17.80667844	     10.88217992	     -2.46729990	     -0.04988508	      0.45047244	     25.87003553	     21.35468770	     -0.32142147	    -24.70562778	      3.10659808	     -1.50982340	      2.16557387	     27.33909500	    -16.97713855	     10.10386846	    -73.67174931	    -27.87910527	     17.72543534	     30.35564959	      8.07310676	     17.45208149	    -11.74093900
      3.09500000	     -6.90857529	    -17.45496627	     10.21157793	     -2.45931759	     -0.04840376	      0.45133818	     24.80857981	     21.51981779	      0.85252220	    -24.23379589	      3.26658014	     -1.80140604	      1.85448074	     27.92284099	    -16.54870245	      9.76531642	    -73.83465849	    -26.66603681	     17.30147281	     30.85784884	      7.91962789	     17.13186141	    -10.87872683
      3.10000000	     -6.87659163	    -17.09656442	      9.57436332	     -2.45116216	     -0.04679359	      0.45221677	     23.59136704	     21.69522647	      2.17511375	    -23.67096065	      3.34151998	     -2.33443832	      1.27298157	     28.39247943	    -16.15790724	      9.39695217	    -73.88707862	    -25.47610447	     16.83325125	     31.18689950	      7.72682241	     16.80329703	    -10.07238494
      3.10500000	     -6.96770721	    -16.66615597	      8.87099203	     -2.44321342	     -0.04534805	      0.45312175	     22.53912316	     21.73192780	      3.44103671	    -23.20241819	      3.51748761	     -2.63189789	      0.93403045	     28.97418298	    -15.67507497	      8.99312514	    -73.88196730	    -24.32916308	     16.44906860	     31.49540162	      7.61276329	     16.39237442	     -9.16306780
